<mxfile host="app.diagrams.net" modified="2021-08-08T08:13:55.829Z" agent="5.0 (Macintosh; Intel Mac OS X 10_15_7) AppleWebKit/537.36 (KHTML, like Gecko) Chrome/92.0.4515.107 Safari/537.36" etag="V3RW1A3_AT_6QrTycCnk" version="14.8.3" type="github">
  <diagram id="gUYVDnn_Loifj1gNQZZq" name="Page-1">
    <mxGraphModel dx="946" dy="1783" grid="1" gridSize="10" guides="1" tooltips="1" connect="1" arrows="1" fold="1" page="1" pageScale="1" pageWidth="827" pageHeight="1169" math="0" shadow="0">
      <root>
        <mxCell id="0" />
        <mxCell id="1" parent="0" />
        <mxCell id="qGZtE659vcWh8nbW6lZo-51" value="平台" style="ellipse;whiteSpace=wrap;html=1;fillColor=#d5e8d4;strokeColor=#82b366;" vertex="1" parent="1">
          <mxGeometry x="380" y="80" width="320" height="190" as="geometry" />
        </mxCell>
        <mxCell id="qGZtE659vcWh8nbW6lZo-58" style="edgeStyle=orthogonalEdgeStyle;rounded=0;orthogonalLoop=1;jettySize=auto;html=1;exitX=1;exitY=0.5;exitDx=0;exitDy=0;" edge="1" parent="1" source="qGZtE659vcWh8nbW6lZo-47" target="qGZtE659vcWh8nbW6lZo-54">
          <mxGeometry relative="1" as="geometry" />
        </mxCell>
        <mxCell id="qGZtE659vcWh8nbW6lZo-47" value="" style="ellipse;whiteSpace=wrap;html=1;aspect=fixed;" vertex="1" parent="1">
          <mxGeometry x="20" y="65" width="220" height="220" as="geometry" />
        </mxCell>
        <mxCell id="qGZtE659vcWh8nbW6lZo-1" value="B端商家2" style="ellipse;whiteSpace=wrap;html=1;aspect=fixed;fillColor=#ffe6cc;strokeColor=#d79b00;" vertex="1" parent="1">
          <mxGeometry x="413.5" y="-30" width="60" height="60" as="geometry" />
        </mxCell>
        <mxCell id="qGZtE659vcWh8nbW6lZo-2" value="经销商1" style="ellipse;whiteSpace=wrap;html=1;aspect=fixed;fillColor=#dae8fc;strokeColor=#6c8ebf;" vertex="1" parent="1">
          <mxGeometry x="520" y="-50" width="90" height="90" as="geometry" />
        </mxCell>
        <mxCell id="qGZtE659vcWh8nbW6lZo-53" style="edgeStyle=orthogonalEdgeStyle;rounded=0;orthogonalLoop=1;jettySize=auto;html=1;exitX=0;exitY=0.5;exitDx=0;exitDy=0;" edge="1" parent="1" source="qGZtE659vcWh8nbW6lZo-4" target="qGZtE659vcWh8nbW6lZo-51">
          <mxGeometry relative="1" as="geometry" />
        </mxCell>
        <mxCell id="qGZtE659vcWh8nbW6lZo-4" value="投资方" style="ellipse;whiteSpace=wrap;html=1;aspect=fixed;fillColor=#f8cecc;strokeColor=#b85450;" vertex="1" parent="1">
          <mxGeometry x="780" y="110" width="130" height="130" as="geometry" />
        </mxCell>
        <mxCell id="qGZtE659vcWh8nbW6lZo-10" value="B端商家3" style="ellipse;whiteSpace=wrap;html=1;aspect=fixed;fillColor=#ffe6cc;strokeColor=#d79b00;" vertex="1" parent="1">
          <mxGeometry x="300" y="20" width="60" height="60" as="geometry" />
        </mxCell>
        <mxCell id="qGZtE659vcWh8nbW6lZo-44" value="" style="group" vertex="1" connectable="0" parent="1">
          <mxGeometry x="100" y="70" width="80" height="210" as="geometry" />
        </mxCell>
        <mxCell id="qGZtE659vcWh8nbW6lZo-43" value="" style="group" vertex="1" connectable="0" parent="qGZtE659vcWh8nbW6lZo-44">
          <mxGeometry width="80" height="210" as="geometry" />
        </mxCell>
        <mxCell id="qGZtE659vcWh8nbW6lZo-45" value="" style="group" vertex="1" connectable="0" parent="qGZtE659vcWh8nbW6lZo-43">
          <mxGeometry x="10" y="21" width="30" height="170" as="geometry" />
        </mxCell>
        <mxCell id="qGZtE659vcWh8nbW6lZo-20" value="" style="shape=actor;whiteSpace=wrap;html=1;" vertex="1" parent="qGZtE659vcWh8nbW6lZo-45">
          <mxGeometry y="60.71428571428571" width="30" height="40.476190476190474" as="geometry" />
        </mxCell>
        <mxCell id="qGZtE659vcWh8nbW6lZo-25" value="" style="shape=actor;whiteSpace=wrap;html=1;" vertex="1" parent="qGZtE659vcWh8nbW6lZo-45">
          <mxGeometry width="30" height="40.476190476190474" as="geometry" />
        </mxCell>
        <mxCell id="qGZtE659vcWh8nbW6lZo-32" value="" style="shape=actor;whiteSpace=wrap;html=1;" vertex="1" parent="qGZtE659vcWh8nbW6lZo-45">
          <mxGeometry y="129.52380952380952" width="30" height="40.476190476190474" as="geometry" />
        </mxCell>
        <mxCell id="qGZtE659vcWh8nbW6lZo-46" value="" style="group" vertex="1" connectable="0" parent="1">
          <mxGeometry x="43" y="119" width="180" height="101" as="geometry" />
        </mxCell>
        <mxCell id="qGZtE659vcWh8nbW6lZo-5" value="" style="shape=actor;whiteSpace=wrap;html=1;" vertex="1" parent="qGZtE659vcWh8nbW6lZo-46">
          <mxGeometry x="137.76" y="27.71" width="42.24" height="47.29" as="geometry" />
        </mxCell>
        <mxCell id="qGZtE659vcWh8nbW6lZo-42" value="" style="group" vertex="1" connectable="0" parent="qGZtE659vcWh8nbW6lZo-46">
          <mxGeometry x="3" y="6" width="61.41963957337257" height="101" as="geometry" />
        </mxCell>
        <mxCell id="qGZtE659vcWh8nbW6lZo-36" style="edgeStyle=orthogonalEdgeStyle;rounded=0;orthogonalLoop=1;jettySize=auto;html=1;exitX=1;exitY=0.75;exitDx=0;exitDy=0;entryX=0;entryY=0.75;entryDx=0;entryDy=0;" edge="1" parent="qGZtE659vcWh8nbW6lZo-42" source="qGZtE659vcWh8nbW6lZo-37">
          <mxGeometry relative="1" as="geometry">
            <mxPoint x="61.41963957337257" y="54.107142857142854" as="targetPoint" />
          </mxGeometry>
        </mxCell>
        <mxCell id="qGZtE659vcWh8nbW6lZo-37" value="" style="shape=actor;whiteSpace=wrap;html=1;" vertex="1" parent="qGZtE659vcWh8nbW6lZo-42">
          <mxGeometry y="36.07142857142857" width="20.471165869805073" height="24.047619047619047" as="geometry" />
        </mxCell>
        <mxCell id="qGZtE659vcWh8nbW6lZo-38" style="edgeStyle=orthogonalEdgeStyle;rounded=0;orthogonalLoop=1;jettySize=auto;html=1;exitX=0.9;exitY=0.5;exitDx=0;exitDy=0;exitPerimeter=0;" edge="1" parent="qGZtE659vcWh8nbW6lZo-42" source="qGZtE659vcWh8nbW6lZo-39">
          <mxGeometry relative="1" as="geometry">
            <mxPoint x="61.41963957337257" y="54.34761904761905" as="targetPoint" />
            <Array as="points">
              <mxPoint x="42.993747701360796" y="12.023809523809524" />
              <mxPoint x="42.993747701360796" y="54.34761904761905" />
            </Array>
          </mxGeometry>
        </mxCell>
        <mxCell id="qGZtE659vcWh8nbW6lZo-39" value="" style="shape=actor;whiteSpace=wrap;html=1;" vertex="1" parent="qGZtE659vcWh8nbW6lZo-42">
          <mxGeometry width="20.471165869805073" height="24.047619047619047" as="geometry" />
        </mxCell>
        <mxCell id="qGZtE659vcWh8nbW6lZo-40" style="edgeStyle=orthogonalEdgeStyle;rounded=0;orthogonalLoop=1;jettySize=auto;html=1;exitX=1;exitY=0.75;exitDx=0;exitDy=0;entryX=0;entryY=0.75;entryDx=0;entryDy=0;" edge="1" parent="qGZtE659vcWh8nbW6lZo-42" source="qGZtE659vcWh8nbW6lZo-41">
          <mxGeometry relative="1" as="geometry">
            <mxPoint x="61.41963957337257" y="54.107142857142854" as="targetPoint" />
            <Array as="points">
              <mxPoint x="42.993747701360796" y="95.22857142857143" />
              <mxPoint x="42.993747701360796" y="54.34761904761905" />
            </Array>
          </mxGeometry>
        </mxCell>
        <mxCell id="qGZtE659vcWh8nbW6lZo-41" value="" style="shape=actor;whiteSpace=wrap;html=1;" vertex="1" parent="qGZtE659vcWh8nbW6lZo-42">
          <mxGeometry y="76.95238095238095" width="20.471165869805073" height="24.047619047619047" as="geometry" />
        </mxCell>
        <mxCell id="qGZtE659vcWh8nbW6lZo-33" style="edgeStyle=orthogonalEdgeStyle;rounded=0;orthogonalLoop=1;jettySize=auto;html=1;exitX=1;exitY=0.75;exitDx=0;exitDy=0;entryX=0;entryY=0.75;entryDx=0;entryDy=0;" edge="1" parent="qGZtE659vcWh8nbW6lZo-46" source="qGZtE659vcWh8nbW6lZo-20" target="qGZtE659vcWh8nbW6lZo-5">
          <mxGeometry relative="1" as="geometry" />
        </mxCell>
        <mxCell id="qGZtE659vcWh8nbW6lZo-34" style="edgeStyle=orthogonalEdgeStyle;rounded=0;orthogonalLoop=1;jettySize=auto;html=1;exitX=0.9;exitY=0.5;exitDx=0;exitDy=0;exitPerimeter=0;entryX=0;entryY=0.75;entryDx=0;entryDy=0;" edge="1" parent="qGZtE659vcWh8nbW6lZo-46" source="qGZtE659vcWh8nbW6lZo-25" target="qGZtE659vcWh8nbW6lZo-5">
          <mxGeometry relative="1" as="geometry" />
        </mxCell>
        <mxCell id="qGZtE659vcWh8nbW6lZo-35" style="edgeStyle=orthogonalEdgeStyle;rounded=0;orthogonalLoop=1;jettySize=auto;html=1;exitX=1;exitY=0.75;exitDx=0;exitDy=0;entryX=0;entryY=0.75;entryDx=0;entryDy=0;" edge="1" parent="qGZtE659vcWh8nbW6lZo-46" source="qGZtE659vcWh8nbW6lZo-32" target="qGZtE659vcWh8nbW6lZo-5">
          <mxGeometry relative="1" as="geometry" />
        </mxCell>
        <mxCell id="qGZtE659vcWh8nbW6lZo-49" value="经销商2" style="ellipse;whiteSpace=wrap;html=1;aspect=fixed;fillColor=#dae8fc;strokeColor=#6c8ebf;" vertex="1" parent="1">
          <mxGeometry x="427" y="279" width="90" height="90" as="geometry" />
        </mxCell>
        <mxCell id="qGZtE659vcWh8nbW6lZo-50" value="B端商家1" style="ellipse;whiteSpace=wrap;html=1;aspect=fixed;fillColor=#ffe6cc;strokeColor=#d79b00;" vertex="1" parent="1">
          <mxGeometry x="650" y="20" width="60" height="60" as="geometry" />
        </mxCell>
        <mxCell id="qGZtE659vcWh8nbW6lZo-52" value="..." style="ellipse;whiteSpace=wrap;html=1;aspect=fixed;fillColor=#ffe6cc;strokeColor=#d79b00;" vertex="1" parent="1">
          <mxGeometry x="330" y="240" width="60" height="60" as="geometry" />
        </mxCell>
        <mxCell id="qGZtE659vcWh8nbW6lZo-54" value="B端商家4" style="ellipse;whiteSpace=wrap;html=1;aspect=fixed;fillColor=#ffe6cc;strokeColor=#d79b00;" vertex="1" parent="1">
          <mxGeometry x="260" y="145" width="60" height="60" as="geometry" />
        </mxCell>
        <mxCell id="qGZtE659vcWh8nbW6lZo-59" value="" style="curved=1;endArrow=classic;html=1;entryX=0.5;entryY=0;entryDx=0;entryDy=0;exitX=1;exitY=0.5;exitDx=0;exitDy=0;" edge="1" parent="1" source="qGZtE659vcWh8nbW6lZo-50" target="qGZtE659vcWh8nbW6lZo-4">
          <mxGeometry width="50" height="50" relative="1" as="geometry">
            <mxPoint x="760" y="90" as="sourcePoint" />
            <mxPoint x="810" y="40" as="targetPoint" />
            <Array as="points">
              <mxPoint x="760" y="40" />
            </Array>
          </mxGeometry>
        </mxCell>
        <mxCell id="qGZtE659vcWh8nbW6lZo-60" value="" style="curved=1;endArrow=classic;html=1;entryX=0.5;entryY=0;entryDx=0;entryDy=0;" edge="1" parent="1" target="qGZtE659vcWh8nbW6lZo-4">
          <mxGeometry width="50" height="50" relative="1" as="geometry">
            <mxPoint x="460" y="-30" as="sourcePoint" />
            <mxPoint x="585" y="50" as="targetPoint" />
            <Array as="points">
              <mxPoint x="490" y="-60" />
              <mxPoint x="570" y="-70" />
              <mxPoint x="690" y="-30" />
            </Array>
          </mxGeometry>
        </mxCell>
        <mxCell id="qGZtE659vcWh8nbW6lZo-61" value="" style="curved=1;endArrow=classic;html=1;entryX=0.5;entryY=0;entryDx=0;entryDy=0;exitX=0.5;exitY=0;exitDx=0;exitDy=0;" edge="1" parent="1" source="qGZtE659vcWh8nbW6lZo-10" target="qGZtE659vcWh8nbW6lZo-4">
          <mxGeometry width="50" height="50" relative="1" as="geometry">
            <mxPoint x="460" as="sourcePoint" />
            <mxPoint x="855" y="120" as="targetPoint" />
            <Array as="points">
              <mxPoint x="410" y="-70" />
              <mxPoint x="550" y="-100" />
              <mxPoint x="700" y="-20" />
            </Array>
          </mxGeometry>
        </mxCell>
        <mxCell id="qGZtE659vcWh8nbW6lZo-62" value="B端商家1" style="ellipse;whiteSpace=wrap;html=1;aspect=fixed;fillColor=#ffe6cc;strokeColor=#d79b00;" vertex="1" parent="1">
          <mxGeometry x="560" y="285" width="60" height="60" as="geometry" />
        </mxCell>
        <mxCell id="qGZtE659vcWh8nbW6lZo-64" value="" style="curved=1;endArrow=classic;html=1;entryX=0.5;entryY=1;entryDx=0;entryDy=0;exitX=1;exitY=0.5;exitDx=0;exitDy=0;" edge="1" parent="1" source="qGZtE659vcWh8nbW6lZo-62" target="qGZtE659vcWh8nbW6lZo-4">
          <mxGeometry width="50" height="50" relative="1" as="geometry">
            <mxPoint x="730" y="360" as="sourcePoint" />
            <mxPoint x="780" y="310" as="targetPoint" />
            <Array as="points">
              <mxPoint x="710" y="330" />
            </Array>
          </mxGeometry>
        </mxCell>
        <mxCell id="qGZtE659vcWh8nbW6lZo-65" value="" style="curved=1;endArrow=classic;html=1;entryX=0.5;entryY=1;entryDx=0;entryDy=0;exitX=0.5;exitY=1;exitDx=0;exitDy=0;" edge="1" parent="1" source="qGZtE659vcWh8nbW6lZo-52" target="qGZtE659vcWh8nbW6lZo-4">
          <mxGeometry width="50" height="50" relative="1" as="geometry">
            <mxPoint x="670" y="320" as="sourcePoint" />
            <mxPoint x="855" y="250" as="targetPoint" />
            <Array as="points">
              <mxPoint x="400" y="390" />
              <mxPoint x="690" y="370" />
            </Array>
          </mxGeometry>
        </mxCell>
        <mxCell id="qGZtE659vcWh8nbW6lZo-66" value="" style="curved=1;endArrow=classic;html=1;entryX=0.5;entryY=1;entryDx=0;entryDy=0;exitX=0.5;exitY=1;exitDx=0;exitDy=0;" edge="1" parent="1" source="qGZtE659vcWh8nbW6lZo-54" target="qGZtE659vcWh8nbW6lZo-4">
          <mxGeometry width="50" height="50" relative="1" as="geometry">
            <mxPoint x="370" y="310" as="sourcePoint" />
            <mxPoint x="855" y="250" as="targetPoint" />
            <Array as="points">
              <mxPoint x="320" y="390" />
              <mxPoint x="650" y="400" />
            </Array>
          </mxGeometry>
        </mxCell>
        <mxCell id="qGZtE659vcWh8nbW6lZo-69" value="" style="endArrow=classic;html=1;exitX=0;exitY=0.5;exitDx=0;exitDy=0;dashed=1;" edge="1" parent="1" source="qGZtE659vcWh8nbW6lZo-2">
          <mxGeometry width="50" height="50" relative="1" as="geometry">
            <mxPoint x="350" y="-50" as="sourcePoint" />
            <mxPoint x="480" as="targetPoint" />
          </mxGeometry>
        </mxCell>
        <mxCell id="qGZtE659vcWh8nbW6lZo-70" value="" style="endArrow=classic;html=1;exitX=1;exitY=0.689;exitDx=0;exitDy=0;exitPerimeter=0;entryX=0;entryY=0.217;entryDx=0;entryDy=0;entryPerimeter=0;dashed=1;" edge="1" parent="1" source="qGZtE659vcWh8nbW6lZo-2" target="qGZtE659vcWh8nbW6lZo-50">
          <mxGeometry width="50" height="50" relative="1" as="geometry">
            <mxPoint x="530" y="5" as="sourcePoint" />
            <mxPoint x="490" y="10" as="targetPoint" />
          </mxGeometry>
        </mxCell>
        <mxCell id="qGZtE659vcWh8nbW6lZo-71" value="" style="endArrow=classic;html=1;dashed=1;" edge="1" parent="1">
          <mxGeometry width="50" height="50" relative="1" as="geometry">
            <mxPoint x="429" y="310" as="sourcePoint" />
            <mxPoint x="400" y="291" as="targetPoint" />
          </mxGeometry>
        </mxCell>
        <mxCell id="qGZtE659vcWh8nbW6lZo-72" value="" style="endArrow=classic;html=1;exitX=1;exitY=0.5;exitDx=0;exitDy=0;dashed=1;" edge="1" parent="1" source="qGZtE659vcWh8nbW6lZo-49">
          <mxGeometry width="50" height="50" relative="1" as="geometry">
            <mxPoint x="439" y="320" as="sourcePoint" />
            <mxPoint x="550" y="320" as="targetPoint" />
          </mxGeometry>
        </mxCell>
      </root>
    </mxGraphModel>
  </diagram>
</mxfile>
